<svg width="15" height="15" viewBox="0 0 15 15" fill="none" xmlns="http://www.w3.org/2000/svg">
<path d="M11.4375 3.56875C11.3207 3.45172 11.1622 3.38595 10.9969 3.38595C10.8316 3.38595 10.673 3.45172 10.5563 3.56875L7.50001 6.61875L4.44376 3.5625C4.32699 3.44547 4.16846 3.3797 4.00314 3.3797C3.83781 3.3797 3.67928 3.44547 3.56251 3.5625C3.31876 3.80625 3.31876 4.2 3.56251 4.44375L6.61876 7.5L3.56251 10.5563C3.31876 10.8 3.31876 11.1938 3.56251 11.4375C3.80626 11.6813 4.20001 11.6813 4.44376 11.4375L7.50001 8.38125L10.5563 11.4375C10.8 11.6813 11.1938 11.6813 11.4375 11.4375C11.6813 11.1938 11.6813 10.8 11.4375 10.5563L8.38126 7.5L11.4375 4.44375C11.675 4.20625 11.675 3.80625 11.4375 3.56875Z" fill="#EF5DA8"/>
</svg>
