<svg width="71" height="80" viewBox="0 0 71 80" fill="none" xmlns="http://www.w3.org/2000/svg">
<mask id="mask0_1_191" style="mask-type:alpha" maskUnits="userSpaceOnUse" x="0" y="0" width="71" height="80">
<path d="M29.3908 64.425V47.7583H41.1497V64.425C41.1497 66.2583 42.4725 67.7583 44.0894 67.7583H52.9086C54.5254 67.7583 55.8483 66.2583 55.8483 64.425V41.0917H60.8459C62.1981 41.0917 62.8449 39.1917 61.816 38.1917L37.2398 13.0917C36.1227 11.9583 34.4177 11.9583 33.3006 13.0917L8.72446 38.1917C7.72495 39.1917 8.34229 41.0917 9.69457 41.0917H14.6921V64.425C14.6921 66.2583 16.015 67.7583 17.6318 67.7583H26.451C28.0679 67.7583 29.3908 66.2583 29.3908 64.425Z" fill="#6D7D8B"/>
</mask>
<g mask="url(#mask0_1_191)">
<rect x="-2.82214" y="-14.4" width="83.2531" height="102.4" fill="#6F42C1"/>
</g>
</svg>
