<svg width="50" height="40" viewBox="0 0 50 40" fill="none" xmlns="http://www.w3.org/2000/svg">
<g clip-path="url(#clip0_1_70)">
<path d="M41.6667 13.3333H35.8125C34.875 12.0333 33.5833 10.9167 32.0208 10.0667L35.4167 7.35L32.4792 5L27.9583 8.61667C27 8.43333 26.0208 8.33333 25 8.33333C23.9792 8.33333 23 8.43333 22.0625 8.61667L17.5208 5L14.5833 7.35L17.9583 10.0667C16.4167 10.9167 15.125 12.0333 14.1875 13.3333H8.33334V16.6667H12.6875C12.5833 17.2167 12.5 17.7667 12.5 18.3333V20H8.33334V23.3333H12.5V25C12.5 25.5667 12.5833 26.1167 12.6875 26.6667H8.33334V30H14.1875C16.3542 32.9833 20.375 35 25 35C29.625 35 33.6458 32.9833 35.8125 30H41.6667V26.6667H37.3125C37.4167 26.1167 37.5 25.5667 37.5 25V23.3333H41.6667V20H37.5V18.3333C37.5 17.7667 37.4167 17.2167 37.3125 16.6667H41.6667V13.3333ZM29.1667 26.6667H20.8333V23.3333H29.1667V26.6667ZM29.1667 20H20.8333V16.6667H29.1667V20Z" fill="#6F42C1"/>
</g>
<defs>
<clipPath id="clip0_1_70">
<rect width="50" height="40" fill="white"/>
</clipPath>
</defs>
</svg>
