<svg width="25" height="25" viewBox="0 0 25 25" fill="none" xmlns="http://www.w3.org/2000/svg">
<path d="M0 12.5C0 5.59644 5.59644 0 12.5 0C19.4036 0 25 5.59644 25 12.5C25 19.4036 19.4036 25 12.5 25C5.59644 25 0 19.4036 0 12.5Z" fill="white"/>
<mask id="mask0_1_399" style="mask-type:luminance" maskUnits="userSpaceOnUse" x="0" y="0" width="25" height="25">
<path fill-rule="evenodd" clip-rule="evenodd" d="M0 12.5C0 5.59644 5.59644 0 12.5 0C19.4036 0 25 5.59644 25 12.5C25 19.4036 19.4036 25 12.5 25C5.59644 25 0 19.4036 0 12.5Z" fill="white"/>
</mask>
<g mask="url(#mask0_1_399)">
<path fill-rule="evenodd" clip-rule="evenodd" d="M12.5006 5.83325C10.6901 5.83325 10.4628 5.84117 9.75172 5.87353C9.04199 5.90603 8.55754 6.01839 8.13365 6.18326C7.69517 6.35354 7.32322 6.58132 6.95266 6.95201C6.58182 7.32257 6.35404 7.69452 6.18321 8.13286C6.01793 8.55689 5.90543 9.04148 5.87348 9.75093C5.84168 10.462 5.83334 10.6894 5.83334 12.5C5.83334 14.3106 5.8414 14.5371 5.87362 15.2482C5.90626 15.9579 6.01862 16.4424 6.18335 16.8663C6.35377 17.3048 6.58155 17.6767 6.95224 18.0473C7.32266 18.4181 7.69461 18.6464 8.13281 18.8167C8.55698 18.9816 9.04157 19.0939 9.75116 19.1264C10.4623 19.1588 10.6894 19.1667 12.4998 19.1667C14.3105 19.1667 14.537 19.1588 15.2482 19.1264C15.9579 19.0939 16.4429 18.9816 16.8671 18.8167C17.3054 18.6464 17.6768 18.4181 18.0472 18.0473C18.4181 17.6767 18.6458 17.3048 18.8167 16.8664C18.9806 16.4424 19.0931 15.9578 19.1264 15.2483C19.1583 14.5372 19.1667 14.3106 19.1667 12.5C19.1667 10.6894 19.1583 10.4622 19.1264 9.75107C19.0931 9.04134 18.9806 8.55689 18.8167 8.133C18.6458 7.69452 18.4181 7.32257 18.0472 6.95201C17.6764 6.58118 17.3055 6.3534 16.8667 6.18326C16.4416 6.01839 15.9569 5.90603 15.2472 5.87353C14.5361 5.84117 14.3097 5.83325 12.4986 5.83325H12.5006ZM12.2784 7.03463H12.2784L12.5006 7.0347C14.2806 7.0347 14.4916 7.04109 15.1945 7.07303C15.8446 7.10275 16.1973 7.21137 16.4323 7.30262C16.7435 7.42345 16.9653 7.5679 17.1985 7.80123C17.4318 8.03457 17.5762 8.25679 17.6973 8.56791C17.7886 8.80263 17.8974 9.15542 17.9269 9.80542C17.9589 10.5082 17.9658 10.7193 17.9658 12.4985C17.9658 14.2777 17.9589 14.4888 17.9269 15.1916C17.8972 15.8416 17.7886 16.1944 17.6973 16.4291C17.5765 16.7402 17.4318 16.9617 17.1985 17.1949C16.9651 17.4283 16.7436 17.5727 16.4323 17.6936C16.1976 17.7852 15.8446 17.8936 15.1945 17.9233C14.4918 17.9552 14.2806 17.9622 12.5006 17.9622C10.7205 17.9622 10.5095 17.9552 9.80671 17.9233C9.1567 17.8933 8.80392 17.7847 8.56878 17.6934C8.25767 17.5726 8.03544 17.4281 7.80211 17.1948C7.56877 16.9615 7.42433 16.7398 7.30321 16.4285C7.21196 16.1938 7.10321 15.841 7.07363 15.191C7.04168 14.4882 7.03529 14.2771 7.03529 12.4968C7.03529 10.7165 7.04168 10.5065 7.07363 9.80376C7.10335 9.15375 7.21196 8.80097 7.30321 8.56596C7.42405 8.25485 7.56877 8.03263 7.80211 7.79929C8.03544 7.56595 8.25767 7.42151 8.56878 7.3004C8.80378 7.20873 9.1567 7.10039 9.80671 7.07053C10.4217 7.04275 10.6601 7.03442 11.9026 7.03303V7.0347C12.0187 7.03452 12.1435 7.03457 12.2783 7.03463H12.2784H12.2784ZM15.2593 8.94146C15.2593 8.49965 15.6176 8.14173 16.0593 8.14173V8.14145C16.5009 8.14145 16.8593 8.49978 16.8593 8.94146C16.8593 9.38313 16.5009 9.74146 16.0593 9.74146C15.6176 9.74146 15.2593 9.38313 15.2593 8.94146ZM12.5005 9.07648C10.6098 9.07655 9.07698 10.6095 9.07698 12.5001C9.07698 14.3908 10.6099 15.9231 12.5006 15.9231C14.3913 15.9231 15.9237 14.3908 15.9237 12.5001C15.9237 10.6094 14.3912 9.07648 12.5005 9.07648ZM14.7229 12.5001C14.7229 11.2727 13.7279 10.2778 12.5006 10.2778C11.2732 10.2778 10.2784 11.2727 10.2784 12.5001C10.2784 13.7273 11.2732 14.7223 12.5006 14.7223C13.7279 14.7223 14.7229 13.7273 14.7229 12.5001Z" fill="black"/>
</g>
</svg>
