<svg width="20" height="20" viewBox="0 0 20 20" fill="none" xmlns="http://www.w3.org/2000/svg">
<g clip-path="url(#clip0_1_349)">
<path d="M9.99166 1.66675C5.39166 1.66675 1.65833 5.40008 1.65833 10.0001C1.65833 14.6001 5.39166 18.3334 9.99166 18.3334C14.5917 18.3334 18.325 14.6001 18.325 10.0001C18.325 5.40008 14.5917 1.66675 9.99166 1.66675ZM13 6.95008C13.8917 6.95008 14.6083 7.66675 14.6083 8.55842C14.6083 9.45008 13.8917 10.1667 13 10.1667C12.1083 10.1667 11.3917 9.45008 11.3917 8.55842C11.3833 7.66675 12.1083 6.95008 13 6.95008ZM7.99999 5.63341C9.08332 5.63341 9.96666 6.51675 9.96666 7.60008C9.96666 8.68341 9.08332 9.56675 7.99999 9.56675C6.91666 9.56675 6.03332 8.68341 6.03332 7.60008C6.03332 6.50841 6.90832 5.63341 7.99999 5.63341ZM7.99999 13.2417V16.3667C5.99999 15.7417 4.41666 14.2001 3.71666 12.2334C4.59166 11.3001 6.77499 10.8251 7.99999 10.8251C8.44166 10.8251 8.99999 10.8917 9.58332 11.0084C8.21666 11.7334 7.99999 12.6917 7.99999 13.2417ZM9.99166 16.6667C9.76666 16.6667 9.54999 16.6584 9.33332 16.6334V13.2417C9.33332 12.0584 11.7833 11.4667 13 11.4667C13.8917 11.4667 15.4333 11.7917 16.2 12.4251C15.225 14.9001 12.8167 16.6667 9.99166 16.6667Z" fill="#DADADA"/>
</g>
<defs>
<clipPath id="clip0_1_349">
<rect width="20" height="20" fill="white"/>
</clipPath>
</defs>
</svg>
