<svg width="25" height="25" viewBox="0 0 25 25" fill="none" xmlns="http://www.w3.org/2000/svg">
<path d="M0 12.5C0 5.59644 5.59644 0 12.5 0C19.4036 0 25 5.59644 25 12.5C25 19.4036 19.4036 25 12.5 25C5.59644 25 0 19.4036 0 12.5Z" fill="#55ACEE"/>
<path d="M12.1256 10.1602L12.1519 10.5927L11.7147 10.5397C10.1234 10.3367 8.73315 9.64818 7.55278 8.49183L6.97571 7.91807L6.82707 8.34177C6.5123 9.28627 6.71341 10.2837 7.36917 10.9546C7.71891 11.3253 7.64022 11.3783 7.03691 11.1576C6.82707 11.087 6.64346 11.034 6.62597 11.0605C6.56477 11.1223 6.77461 11.9256 6.94074 12.2434C7.16807 12.6847 7.63147 13.1172 8.13859 13.3732L8.56703 13.5762L8.0599 13.5851C7.57027 13.5851 7.55278 13.5939 7.60524 13.7793C7.78011 14.353 8.47085 14.9621 9.24027 15.2269L9.78237 15.4123L9.31022 15.6948C8.61074 16.1008 7.78885 16.3303 6.96697 16.348C6.57351 16.3568 6.25 16.3921 6.25 16.4186C6.25 16.5068 7.31671 17.0012 7.93749 17.1954C9.79986 17.7691 12.012 17.522 13.6732 16.5422C14.8536 15.8448 16.034 14.459 16.5848 13.1172C16.8821 12.4022 17.1794 11.0958 17.1794 10.4691C17.1794 10.0631 17.2056 10.0101 17.6952 9.5246C17.9838 9.24214 18.2548 8.93319 18.3073 8.84492C18.3947 8.6772 18.386 8.6772 17.94 8.82726C17.1969 9.09208 17.0919 9.05677 17.4592 8.65955C17.7302 8.37708 18.0537 7.86511 18.0537 7.71505C18.0537 7.68857 17.9226 7.7327 17.7739 7.81215C17.6165 7.90042 17.2668 8.03282 17.0045 8.11227L16.5323 8.26233L16.1039 7.97103C15.8678 7.81215 15.5356 7.6356 15.3607 7.58264C14.9148 7.45906 14.2328 7.47672 13.8306 7.61795C12.7377 8.01517 12.0469 9.03911 12.1256 10.1602Z" fill="white"/>
</svg>
