<svg width="25" height="25" viewBox="0 0 25 25" fill="none" xmlns="http://www.w3.org/2000/svg">
<path d="M0 12.5C0 5.59644 5.59644 0 12.5 0C19.4036 0 25 5.59644 25 12.5C25 19.4036 19.4036 25 12.5 25C5.59644 25 0 19.4036 0 12.5Z" fill="#FF0000"/>
<path d="M18.888 9.41322C18.7347 8.82415 18.2829 8.36029 17.7092 8.20286C16.6695 7.91675 12.5 7.91675 12.5 7.91675C12.5 7.91675 8.33054 7.91675 7.29077 8.20286C6.71706 8.36029 6.26524 8.82415 6.1119 9.41322C5.83334 10.4808 5.83334 12.7084 5.83334 12.7084C5.83334 12.7084 5.83334 14.9359 6.1119 16.0036C6.26524 16.5927 6.71706 17.0565 7.29077 17.214C8.33054 17.5001 12.5 17.5001 12.5 17.5001C12.5 17.5001 16.6695 17.5001 17.7092 17.214C18.2829 17.0565 18.7347 16.5927 18.888 16.0036C19.1667 14.9359 19.1667 12.7084 19.1667 12.7084C19.1667 12.7084 19.1667 10.4808 18.888 9.41322Z" fill="white"/>
<path d="M11.25 14.9999V10.8333L14.5833 12.9167L11.25 14.9999Z" fill="#FF0000"/>
</svg>
